<?xml version="1.0" encoding="UTF-8"?> <svg xmlns="http://www.w3.org/2000/svg" width="38" height="38" viewBox="0 0 38 38" fill="none"><rect width="38" height="38" fill="white"></rect><circle cx="21.3088" cy="14.3803" r="7.05751" stroke="#062942" stroke-width="1.97917"></circle><path fill-rule="evenodd" clip-rule="evenodd" d="M16.4818 19.3704C13.364 21.1764 11.25 24.6778 11.25 28.7011C11.25 34.5734 16.7565 34.8218 21.282 34.8329C25.8257 34.844 31.3677 34.5734 31.3677 28.7011C31.3677 24.6778 29.2537 21.1764 26.1359 19.3704C25.6227 19.9023 25.0225 20.3497 24.358 20.6895C27.2708 21.965 29.3886 25.0157 29.3886 28.7011C29.3886 29.8489 29.1222 30.5523 28.8048 31.0097C28.4833 31.473 27.9949 31.8483 27.2785 32.1418C25.7425 32.7711 23.6113 32.8594 21.2868 32.8537C18.9625 32.848 16.8469 32.7608 15.3207 32.1341C14.6106 31.8425 14.1275 31.4702 13.8093 31.0097C13.4945 30.5544 13.2292 29.8514 13.2292 28.7011C13.2292 25.0157 15.3469 21.965 18.2597 20.6895C17.5952 20.3497 16.995 19.9024 16.4818 19.3704Z" fill="#062942"></path><path fill-rule="evenodd" clip-rule="evenodd" d="M10.2256 17.2818C11.4309 17.2818 12.554 16.9304 13.4983 16.3245C13.6622 16.9854 13.9078 17.614 14.2238 18.199C13.0459 18.8746 11.6809 19.2609 10.2256 19.2609C8.70859 19.2609 7.28959 18.8411 6.07846 18.1114C3.74643 19.6066 2.14591 22.3308 2.14591 25.5347C2.14591 26.685 2.41128 27.388 2.726 27.8433C3.04426 28.3038 3.52732 28.6761 4.23743 28.9677C5.76369 29.5944 7.87926 29.6816 10.2036 29.6873C10.5766 29.6882 10.9446 29.6867 11.306 29.6809C11.3973 30.4443 11.5979 31.0946 11.8875 31.6485C11.3177 31.665 10.7508 31.6678 10.1988 31.6665C5.67321 31.6554 0.166748 31.407 0.166748 25.5347C0.166748 21.9314 1.8624 18.7467 4.45626 16.8237C3.04665 15.3742 2.17855 13.3954 2.17855 11.2138C2.17855 6.76955 5.78136 3.16675 10.2256 3.16675C13.2881 3.16675 15.951 4.87743 17.3108 7.39534C16.7256 7.73104 16.1865 8.13817 15.7056 8.60485C14.73 6.55936 12.6429 5.14591 10.2256 5.14591C6.87442 5.14591 4.15772 7.86262 4.15772 11.2138C4.15772 14.5651 6.87442 17.2818 10.2256 17.2818Z" fill="#062942"></path></svg> 