<?xml version="1.0" encoding="UTF-8"?> <svg xmlns="http://www.w3.org/2000/svg" width="24" height="30" viewBox="0 0 24 30" fill="none"><rect x="0.9375" y="0.9375" width="22.125" height="28.125" rx="2.0625" stroke="#062942" stroke-width="1.875"></rect><mask id="path-2-inside-1_78_2281" fill="white"><rect x="3" y="3" width="18" height="7.5" rx="1.5"></rect></mask><rect x="3" y="3" width="18" height="7.5" rx="1.5" stroke="#062942" stroke-width="3.75" mask="url(#path-2-inside-1_78_2281)"></rect><rect x="4.05002" y="12" width="3.21429" height="3.21429" rx="0.75" fill="#062942"></rect><rect x="4.05002" y="17.4642" width="3.21429" height="3.21429" rx="0.75" fill="#062942"></rect><rect x="4.05002" y="22.9285" width="3.21429" height="3.21429" rx="0.75" fill="#062942"></rect><rect x="10.2643" y="12" width="3.21429" height="3.21429" rx="0.75" fill="#062942"></rect><rect x="10.2643" y="17.4642" width="3.21429" height="3.21429" rx="0.75" fill="#062942"></rect><rect x="10.2643" y="22.9285" width="3.21429" height="3.21429" rx="0.75" fill="#062942"></rect><rect x="16.4785" y="12" width="3.21429" height="3.21429" rx="0.75" fill="#062942"></rect><rect x="16.4785" y="17.4642" width="3.21429" height="3.21429" rx="0.75" fill="#062942"></rect><rect x="16.4785" y="22.9285" width="3.21429" height="3.21429" rx="0.75" fill="#062942"></rect></svg> 