<?xml version="1.0" encoding="UTF-8"?> <svg xmlns="http://www.w3.org/2000/svg" width="48" height="48" viewBox="0 0 48 48" fill="none"><path d="M37.0001 24H40.4802C41.8967 24 42.8643 25.432 42.3358 26.7463L37.0085 39.9919C36.3993 41.5068 34.9303 42.4993 33.2974 42.4993H30.0001" stroke="#0075DD" stroke-width="3" stroke-linecap="round"></path><mask id="path-2-inside-1_2034_3713" fill="white"><path fill-rule="evenodd" clip-rule="evenodd" d="M9.53456 18.5896C9.69604 18.2308 10.053 18 10.4465 18H20.3602C20.819 18 21.2639 18.1578 21.6203 18.4469L25.3422 21.4664H35.9998C37.014 21.4664 37.8519 22.2214 37.9822 23.2H37.9998V40.0001C37.9998 42.2092 36.209 44.0001 33.9998 44.0001H7.99981C5.79068 44.0001 3.99982 42.2092 3.99982 40.0001V26.6665H3.99976V23.4664C3.99976 23.4612 3.99978 23.4561 3.99982 23.4509V23.2H4.01735C4.14761 22.2214 4.98552 21.4664 5.99976 21.4664H8.24L9.53456 18.5896Z"></path></mask><path d="M9.53456 18.5896L12.2703 19.8207L12.2703 19.8207L9.53456 18.5896ZM21.6203 18.4469L19.7302 20.7766L19.7302 20.7766L21.6203 18.4469ZM25.3422 21.4664L23.4522 23.7962L24.2784 24.4664H25.3422V21.4664ZM37.9822 23.2L35.0084 23.5959L35.355 26.2H37.9822V23.2ZM37.9998 23.2H40.9998V20.2H37.9998V23.2ZM3.99982 26.6665H6.99982V23.6665H3.99982V26.6665ZM3.99976 26.6665H0.999756V29.6665H3.99976V26.6665ZM3.99982 23.4509L6.99973 23.4738L6.99982 23.4623V23.4509H3.99982ZM3.99982 23.2V20.2H0.999815V23.2H3.99982ZM4.01735 23.2V26.2H6.64447L6.99112 23.5959L4.01735 23.2ZM8.24 21.4664V24.4664H10.1798L10.9758 22.6975L8.24 21.4664ZM10.4465 15C8.87244 15 7.44473 15.9231 6.7988 17.3585L12.2703 19.8207C11.9474 20.5384 11.2335 21 10.4465 21V15ZM20.3602 15H10.4465V21H20.3602V15ZM23.5103 16.1171C22.6195 15.3944 21.5073 15 20.3602 15V21C20.1308 21 19.9083 20.9211 19.7302 20.7766L23.5103 16.1171ZM27.2323 19.1367L23.5103 16.1171L19.7302 20.7766L23.4522 23.7962L27.2323 19.1367ZM35.9998 18.4664H25.3422V24.4664H35.9998V18.4664ZM40.9559 22.8042C40.6299 20.3547 38.5378 18.4664 35.9998 18.4664V24.4664C35.4902 24.4664 35.0739 24.0881 35.0084 23.5959L40.9559 22.8042ZM37.9822 26.2H37.9998V20.2H37.9822V26.2ZM34.9998 23.2V40.0001H40.9998V23.2H34.9998ZM34.9998 40.0001C34.9998 40.5523 34.5521 41.0001 33.9998 41.0001V47.0001C37.8658 47.0001 40.9998 43.8661 40.9998 40.0001H34.9998ZM33.9998 41.0001H7.99981V47.0001H33.9998V41.0001ZM7.99981 41.0001C7.44753 41.0001 6.99982 40.5523 6.99982 40.0001H0.999815C0.999815 43.8661 4.13382 47.0001 7.99981 47.0001V41.0001ZM6.99982 40.0001V26.6665H0.999815V40.0001H6.99982ZM3.99976 29.6665H3.99982V23.6665H3.99976V29.6665ZM0.999756 23.4664V26.6665H6.99976V23.4664H0.999756ZM0.999903 23.428C0.999805 23.4408 0.999756 23.4536 0.999756 23.4664H6.99976C6.99976 23.4689 6.99975 23.4713 6.99973 23.4738L0.999903 23.428ZM6.99982 23.4509V23.2H0.999815V23.4509H6.99982ZM3.99982 26.2H4.01735V20.2H3.99982V26.2ZM5.99976 18.4664C3.46175 18.4664 1.36964 20.3547 1.04358 22.8042L6.99112 23.5959C6.92559 24.0881 6.50928 24.4664 5.99976 24.4664V18.4664ZM8.24 18.4664H5.99976V24.4664H8.24V18.4664ZM6.7988 17.3585L5.50423 20.2354L10.9758 22.6975L12.2703 19.8207L6.7988 17.3585Z" fill="#0075DD" mask="url(#path-2-inside-1_2034_3713)"></path><path d="M11.9999 18.3077V8C11.9999 6.89543 12.8954 6 13.9999 6H31.9999C33.1045 6 33.9999 6.89543 33.9999 8V22" stroke="#0075DD" stroke-width="3"></path><path d="M16.0001 10H28.0001" stroke="#0075DD" stroke-width="3" stroke-linecap="round"></path><path d="M16.0001 15H24.0001" stroke="#0075DD" stroke-width="3" stroke-linecap="round"></path></svg> 