<?xml version="1.0" encoding="utf-8"?>
<!-- Generator: Adobe Illustrator 24.3.0, SVG Export Plug-In . SVG Version: 6.00 Build 0)  -->
<svg version="1.1" id="Layer_1" xmlns="http://www.w3.org/2000/svg" xmlns:xlink="http://www.w3.org/1999/xlink" x="0px" y="0px"
	 viewBox="0 0 172.3 62" style="enable-background:new 0 0 172.3 62;" xml:space="preserve">
<style type="text/css">
	.st0{fill:#0075DD;}
</style>
<g>
	<g>
		<path class="st0" d="M11.9,15.4c-6.5,0-11.8,5.3-11.8,11.8v16.2h16.2c6.5,0,11.8-5.3,11.8-11.8V15.4H11.9z M21.5,20.4
			c0,2.1-1.7,3.9-3.9,3.9h-4.2v3.3h5.6v3.9h-5.6v8H8.9V19.3h4.6V23c0.1-2,1.8-3.7,3.9-3.7h4.2V20.4z"/>
		<path d="M44,25.7v10.5h2.7v-5.8c0-0.3,0-1.3,0.4-1.8c0.7-0.8,1.6-0.7,1.7-0.7l0.1,0v-2.6l-0.1,0c-0.8-0.1-1.6,0.2-1.9,0.6
			c-0.1,0.1-0.1,0.1-0.2,0.2c-0.1,0.1-0.2,0.2-0.3,0.3v-0.7H44z"/>
		<path d="M71.7,36.3v-5.8c0-1.6,0.7-2.5,2-2.5c0.5,0,1,0.2,1.3,0.5c0.4,0.4,0.7,1.1,0.7,2v5.8h2.7v-6.6c0-2.3-1.6-4.1-3.7-4.3
			c-1.2-0.1-2.2,0.2-2.9,0.9l0,0v-4.1H69l0,14H71.7z"/>
		<path d="M86.8,28.6L86.8,28.6L86.8,28.6c1.1-0.8,1.5-2.2,1.2-3.2c-0.4-2-2-3.2-4.6-3.2h-3.7l0,14h3.9c2.9,0,4.7-1.2,5.2-3.6
			C89.2,31.2,88.4,29.1,86.8,28.6 M82.5,25h1.2c0.5,0,1.6,0.1,1.6,1.2c0,0.4-0.1,0.7-0.3,0.9c-0.4,0.4-1.1,0.5-1.7,0.5h-0.8V25z
			 M85.8,32.9c-0.4,0.4-1.2,0.7-2.3,0.7h-0.9v-3.3H84c0.9,0,2,0.4,2.1,1.5C86.2,32.3,86.1,32.6,85.8,32.9"/>
		<path d="M98.9,27c-1.1-1.1-2.5-1.6-3.9-1.6c-3,0-5.4,2.5-5.5,5.6c0,3,2.4,5.5,5.4,5.6H95c1.4,0,2.8-0.6,3.9-1.6
			c1.1-1.1,1.7-2.5,1.7-4C100.6,29.6,99.9,28.1,98.9,27 M95.1,34c-0.8,0-1.5-0.3-2.1-0.8c-0.6-0.6-0.9-1.3-0.9-2.1
			c0-1.6,1.2-2.9,2.8-2.9H95c1.6,0,2.9,1.3,2.9,2.9C97.9,32.6,96.7,34,95.1,34"/>
		<path d="M110.6,27c-1.1-1.1-2.5-1.6-3.9-1.6c-3,0-5.4,2.5-5.5,5.6c0,3,2.4,5.5,5.4,5.6h0.1c1.4,0,2.8-0.6,3.9-1.6
			c1.1-1.1,1.7-2.5,1.7-4C112.3,29.6,111.7,28.1,110.6,27 M108.9,33.1c-0.5,0.6-1.3,0.9-2,0.9c-0.8,0-1.5-0.3-2.1-0.8
			c-0.6-0.6-0.9-1.3-0.9-2.1c0-1.6,1.2-2.9,2.8-2.9h0.1c1.6,0,2.9,1.3,2.9,2.9C109.7,31.7,109.4,32.5,108.9,33.1"/>
		<polygon points="115.7,31.5 115.9,31.3 116.1,31.3 119.2,36.3 122.1,36.3 118,29.4 122.1,25.7 118.4,25.7 115.7,28.1 115.7,28.1 
			115.7,22.2 113.1,22.2 113.1,36.3 115.7,36.3 		"/>
		<path d="M129.8,33.1c0-2.2-1.8-2.8-3.3-3.3l0,0.1l0-0.1c-0.9-0.3-1.7-0.5-1.7-1.1c0-0.4,0.3-0.7,0.9-0.7c0.3,0,0.7,0.1,0.9,0.3
			l0.1,0.1l1.8-1.8l-0.1-0.1c-0.7-0.7-1.6-1-2.6-1c-2.2,0-3.6,1.3-3.6,3.2c0,2.3,1.8,2.8,3.2,3.2c1,0.3,1.8,0.5,1.8,1.2
			c0,0.6-0.6,1-1.4,1c-0.8,0-1.3-0.4-1.3-1.1v-0.2h-2.7v0.2c0,2.1,1.7,3.6,4,3.6C128.2,36.6,129.8,35.2,129.8,33.1"/>
		<polygon points="37.9,25 37.9,28.1 42.5,28.1 42.5,30.8 37.9,30.8 37.9,36.3 35.2,36.3 35.2,22.3 42.8,22.3 42.8,25 		"/>
		<path d="M60,31.1c0-3.4-1.9-5.6-5-5.6c-3.2,0-5.5,2.3-5.5,5.4c0,3.3,2.3,5.7,5.4,5.7c1.7,0,3.2-0.7,4.3-1.8l0.1-0.1L57.4,33
			l-0.1,0.1c-0.6,0.7-1.5,1.1-2.4,1.1c-1.4,0-2.5-0.9-2.8-2.4l0-0.2H60V31.1z M52.3,29.2l0.1-0.1c0.5-0.8,1.3-1.3,2.4-1.3
			c1.2,0,2.1,0.5,2.4,1.4H52.3z"/>
		<path d="M65,29.8c-0.9-0.3-1.7-0.5-1.7-1.1c0-0.4,0.3-0.7,0.9-0.7c0.3,0,0.7,0.1,0.9,0.3l0.1,0.1l1.8-1.8l-0.1-0.1
			c-0.7-0.7-1.6-1-2.6-1c-2.2,0-3.6,1.3-3.6,3.2c0,2.3,1.8,2.8,3.2,3.2c1,0.3,1.8,0.5,1.8,1.2c0,0.6-0.6,1-1.4,1
			c-0.8,0-1.3-0.4-1.3-1.1v-0.2h-2.7v0.2c0,2.1,1.7,3.6,4,3.6c2.3,0,4-1.5,4-3.5C68.3,30.9,66.5,30.3,65,29.8"/>
	</g>
	<g>
		<path class="st0" d="M140.6,36.2h-5.6v-14h5.4c3.4,0,4.8,1.5,4.8,3.7c0,1.6-1.2,2.8-2.7,3c1.8,0.3,3.1,1.4,3.1,3.4
			C145.6,34.8,143.9,36.2,140.6,36.2z M136.4,28.4h4.3c2.2,0,3.2-0.9,3.2-2.5c0-1.5-1-2.5-3.2-2.5h-4.3V28.4z M136.4,29.5V35h4.3
			c2.3,0,3.5-1,3.5-2.7c0-1.8-1.2-2.8-3.5-2.8H136.4z"/>
		<path class="st0" d="M149.2,22.2v14h-1.4v-14H149.2z"/>
		<path class="st0" d="M156,36.5c-2.7,0-4.8-2.1-4.8-5.1s2.1-5.1,4.8-5.1c2.8,0,4.8,2.1,4.8,5.1S158.8,36.5,156,36.5z M156,35.4
			c2.2,0,3.4-1.7,3.4-4s-1.2-4-3.4-4c-2.2,0-3.4,1.7-3.4,4S153.9,35.4,156,35.4z"/>
		<path class="st0" d="M166.6,32.8c-0.8,0-1.5-0.1-2.1-0.4c-0.4,0.2-0.8,0.6-0.8,1.1c0,0.6,0.3,0.9,1.3,0.9h3.7
			c2.1,0,3.2,1.1,3.2,2.6c0,2.4-2.6,3.3-5.4,3.3c-2.6,0-4.7-0.9-4.7-2.7c0-1.2,0.8-1.9,2-2.2c-0.9-0.3-1.2-0.9-1.2-1.6
			c0-0.8,0.6-1.4,1.4-1.8c-0.8-0.6-1.2-1.4-1.2-2.5c0-2,1.6-3.3,3.9-3.3c1.2,0,2.3,0.4,3,1.1c0.5-0.8,1.4-1.3,2.4-1.3v1.3
			c-0.7,0-1.5,0.2-2,0.5c0.3,0.5,0.5,1.1,0.5,1.7C170.5,31.6,168.9,32.8,166.6,32.8z M166.4,39.3c2.4,0,4.1-0.6,4.1-2.2
			c0-1-0.9-1.4-2.2-1.4h-3c-1.2,0-2.2,0.4-2.2,1.6C163.1,38.7,164.5,39.3,166.4,39.3z M166.6,27.2c-1.6,0-2.5,0.9-2.5,2.4
			c0,1.5,0.9,2.3,2.5,2.3c1.6,0,2.5-0.9,2.5-2.3C169.1,28.1,168.2,27.2,166.6,27.2z"/>
	</g>
</g>
</svg>
