<?xml version="1.0" encoding="UTF-8"?> <svg xmlns="http://www.w3.org/2000/svg" width="40" height="40" viewBox="0 0 40 40" fill="none"><rect width="40" height="40" fill="white"></rect><path d="M20.4448 9.6642C19.6124 10.8675 18.6074 11.7207 17.7021 12.154C16.7662 12.6021 16.151 12.5203 15.8341 12.3011C15.5172 12.0819 15.2237 11.535 15.3129 10.5012C15.3991 9.50127 15.8431 8.25996 16.6755 7.05668C17.6177 5.6946 19.4488 5.05038 20.7991 4.77197C20.8953 4.75215 20.9673 4.77446 21.017 4.80883C21.0667 4.8432 21.113 4.90278 21.1284 4.99975C21.3441 6.36145 21.387 8.30212 20.4448 9.6642Z" stroke="#062942" stroke-width="2.08333"></path><mask id="path-2-inside-1_109_3066" fill="white"><path fill-rule="evenodd" clip-rule="evenodd" d="M19.1668 36.6667C25.8334 36.6667 29.1668 28.5703 29.1668 21.6667C29.1668 14.7632 24.6896 11.6667 19.1668 11.6667C17.6797 11.6667 16.2685 11.8912 15.0001 12.3541C13.7317 11.8913 12.3205 11.6668 10.8335 11.6668C5.31065 11.6668 0.833496 14.7632 0.833496 21.6668C0.833496 28.5703 4.16683 36.6668 10.8335 36.6668C12.4084 36.6668 13.7973 36.2149 15.0002 35.4337C16.203 36.2149 17.5919 36.6667 19.1668 36.6667Z"></path></mask><path fill-rule="evenodd" clip-rule="evenodd" d="M19.1668 36.6667C25.8334 36.6667 29.1668 28.5703 29.1668 21.6667C29.1668 14.7632 24.6896 11.6667 19.1668 11.6667C17.6797 11.6667 16.2685 11.8912 15.0001 12.3541C13.7317 11.8913 12.3205 11.6668 10.8335 11.6668C5.31065 11.6668 0.833496 14.7632 0.833496 21.6668C0.833496 28.5703 4.16683 36.6668 10.8335 36.6668C12.4084 36.6668 13.7973 36.2149 15.0002 35.4337C16.203 36.2149 17.5919 36.6667 19.1668 36.6667Z" fill="white"></path><path d="M15.0001 12.3541L14.286 14.3112L15.0001 14.5717L15.7142 14.3112L15.0001 12.3541ZM15.0002 35.4337L16.1349 33.6865L15.0001 32.9496L13.8654 33.6865L15.0002 35.4337ZM27.0834 21.6667C27.0834 24.8294 26.3115 28.2039 24.8625 30.714C23.4259 33.2025 21.5097 34.5834 19.1668 34.5834V38.7501C23.4905 38.7501 26.5743 36.0828 28.471 32.7972C30.3553 29.5331 31.2501 25.4077 31.2501 21.6667H27.0834ZM19.1668 13.7501C21.5581 13.7501 23.5098 14.4194 24.8402 15.6229C26.1352 16.7943 27.0834 18.6895 27.0834 21.6667H31.2501C31.2501 17.7405 29.9598 14.6356 27.6355 12.5329C25.3465 10.4623 22.2983 9.58341 19.1668 9.58341V13.7501ZM15.7142 14.3112C16.7209 13.9439 17.8856 13.7501 19.1668 13.7501V9.58341C17.4739 9.58341 15.8162 9.83859 14.286 10.3969L15.7142 14.3112ZM10.8335 13.7501C12.1146 13.7501 13.2793 13.9439 14.286 14.3112L15.7142 10.3969C14.184 9.83862 12.5263 9.58345 10.8335 9.58345V13.7501ZM2.91683 21.6668C2.91683 18.6895 3.8651 16.7944 5.16005 15.6229C6.49042 14.4194 8.44215 13.7501 10.8335 13.7501V9.58345C7.70199 9.58345 4.65372 10.4624 2.36481 12.533C0.0404708 14.6356 -1.24984 17.7405 -1.24984 21.6668H2.91683ZM10.8335 34.5835C8.4906 34.5835 6.57434 33.2025 5.13776 30.714C3.68872 28.2039 2.91683 24.8294 2.91683 21.6668H-1.24984C-1.24984 25.4077 -0.355057 29.5332 1.52923 32.7972C3.42599 36.0828 6.50972 38.7501 10.8335 38.7501V34.5835ZM13.8654 33.6865C12.9845 34.2587 11.9871 34.5835 10.8335 34.5835V38.7501C12.8297 38.7501 14.6101 38.1712 16.1349 37.1809L13.8654 33.6865ZM19.1668 34.5834C18.0132 34.5834 17.0158 34.2587 16.1349 33.6865L13.8654 37.1809C15.3902 38.1712 17.1706 38.7501 19.1668 38.7501V34.5834Z" fill="#062942" mask="url(#path-2-inside-1_109_3066)"></path><path d="M10.0001 16.6667C9.11119 16.9445 7.20008 18.3334 6.66675 21.6667" stroke="#062942" stroke-width="2.08333" stroke-linecap="round"></path><path d="M8.3335 7.50006C11.6668 6.66673 14.1668 9.83339 14.1668 12.5001" stroke="#062942" stroke-width="2.08333" stroke-linecap="round"></path></svg> 