<?xml version="1.0" encoding="UTF-8"?> <svg xmlns="http://www.w3.org/2000/svg" width="42" height="42" viewBox="0 0 42 42" fill="none"><g clip-path="url(#clip0_109_3052)"><rect width="42" height="42" fill="white"></rect><path d="M29.5317 10.3587C30.4982 12.0327 29.9246 14.1733 28.2506 15.1398C26.5765 16.1063 24.436 15.5327 23.4695 13.8587C22.503 12.1847 23.0765 10.0441 24.7506 9.07764C26.4246 8.11114 28.5652 8.6847 29.5317 10.3587Z" fill="#062942"></path><path fill-rule="evenodd" clip-rule="evenodd" d="M10.5297 25.7884C11.0032 25.5151 11.6087 25.6773 11.8821 26.1508L15.8932 33.0983C16.1031 33.4618 16.5679 33.5863 16.9314 33.3765L18.1318 32.6834C18.4953 32.4735 18.6199 32.0087 18.41 31.6452L14.3989 24.6977C14.1255 24.2242 14.2877 23.6188 14.7612 23.3454C15.2348 23.072 15.8402 23.2342 16.1136 23.7077L20.1247 30.6552C20.8814 31.9658 20.4323 33.6415 19.1218 34.3981L17.9214 35.0912C16.6109 35.8478 14.9351 35.3988 14.1785 34.0883L10.1674 27.1408C9.89398 26.6673 10.0562 26.0618 10.5297 25.7884Z" fill="#062942"></path><path d="M0.930649 23.8205C-0.0358496 22.1465 0.537715 20.0059 2.21174 19.0394L11.5721 13.6353C11.7722 13.5197 11.9474 13.3657 12.0877 13.1821L18.3286 5.01345C19.8449 3.02886 22.8921 3.22538 24.1409 5.3883L31.1062 17.4526C32.355 19.6155 31.0015 22.3528 28.5247 22.6736L18.3299 23.9941C18.1008 24.0238 17.8798 24.0985 17.6797 24.214L8.3194 29.6182C6.64538 30.5847 4.50481 30.0112 3.53831 28.3371L0.930649 23.8205Z" fill="white"></path><path fill-rule="evenodd" clip-rule="evenodd" d="M29.3915 18.4426L22.4262 6.3783C21.8838 5.43898 20.5605 5.35363 19.902 6.21551L13.661 14.3842C13.3621 14.7755 12.9886 15.1038 12.5621 15.35L3.20174 20.7542C2.47473 21.1739 2.22564 22.1035 2.64538 22.8305L5.25304 27.3471C5.67278 28.0741 6.6024 28.3232 7.3294 27.9035L16.6897 22.4993C17.1162 22.2531 17.5872 22.0937 18.0756 22.0305L28.2704 20.71C29.346 20.5707 29.9338 19.3819 29.3915 18.4426ZM2.21174 19.0394C0.537714 20.0059 -0.0358496 22.1465 0.930649 23.8205L3.53831 28.3371C4.50481 30.0112 6.64538 30.5847 8.3194 29.6182L17.6797 24.214C17.8798 24.0985 18.1008 24.0238 18.3299 23.9941L28.5247 22.6736C31.0015 22.3528 32.355 19.6155 31.1062 17.4526L24.1409 5.3883C22.8921 3.22538 19.8449 3.02886 18.3286 5.01345L12.0877 13.1821C11.9474 13.3657 11.7722 13.5197 11.5721 13.6353L2.21174 19.0394Z" fill="#062942"></path><path fill-rule="evenodd" clip-rule="evenodd" d="M13.4591 14.2236L18.1137 22.2856L16.399 23.2756L11.7444 15.2136L13.4591 14.2236Z" fill="#062942"></path><path fill-rule="evenodd" clip-rule="evenodd" d="M8.37006 17.1617C8.84357 16.8884 9.44904 17.0506 9.72243 17.5241L13.387 23.8714C13.6604 24.3449 13.4982 24.9504 13.0247 25.2237C12.5511 25.4971 11.9457 25.3349 11.6723 24.8614L8.0077 18.5141C7.73431 18.0406 7.89655 17.4351 8.37006 17.1617Z" fill="#062942"></path></g><defs><clipPath id="clip0_109_3052"><rect width="42" height="42" fill="white"></rect></clipPath></defs></svg> 