<?xml version="1.0" encoding="UTF-8"?>
<svg width="609px" height="133px" viewBox="0 0 609 133" version="1.1" xmlns="http://www.w3.org/2000/svg" xmlns:xlink="http://www.w3.org/1999/xlink">
    <title>Group 27 Copy</title>
    <defs>
        <polygon id="path-1" points="0 0.233 131.7675 0.233 131.7675 132 0 132"></polygon>
        <polygon id="path-3" points="0.0053 0.1526 37.587 0.1526 37.587 51.9336 0.0053 51.9336"></polygon>
    </defs>
    <g id="Logos" stroke="none" stroke-width="1" fill="none" fill-rule="evenodd">
        <g id="Group-27-Copy">
            <polygon id="Fill-1" fill="#FFFFFF" points="38.664 117.061 107.405 117.061 107.405 15.11 38.664 15.11"></polygon>
            <g id="Group-26" transform="translate(0.000000, 0.767000)">
                <g id="Group-4">
                    <mask id="mask-2" fill="white">
                        <use xlink:href="#path-1"></use>
                    </mask>
                    <g id="Clip-3"></g>
                    <path d="M100.5815,23.6176 C100.5815,33.6766 92.4285,41.8206 82.3785,41.8206 L62.8345,41.8206 L62.8345,57.4406 L89.1995,57.4406 L89.1995,75.7266 L62.9635,75.7266 L62.9635,113.3716 L41.3465,113.3716 L41.3465,18.8606 L62.8345,18.8606 L62.8345,35.9996 C63.3805,26.4396 71.3105,18.8606 80.9995,18.8606 L100.5815,18.8606 L100.5815,23.6176 Z M55.5515,0.2326 C24.8745,0.2326 -0.0005,25.1076 -0.0005,55.7936 L-0.0005,132.0006 L76.2065,132.0006 C106.8925,132.0006 131.7675,107.1256 131.7675,76.4486 L131.7675,0.2326 L55.5515,0.2326 Z" id="Fill-2" fill="#0075DD" mask="url(#mask-2)"></path>
                </g>
                <path d="M205.9115,48.8735 L205.9115,98.2355 L218.7995,98.2355 L218.7995,71.2095 C218.7995,69.6785 218.7995,65.0195 220.6955,62.8065 C223.8795,59.2145 228.1375,59.4595 228.6095,59.4955 L229.1515,59.5405 L229.1515,47.3005 L228.6975,47.2585 C224.8955,46.9095 221.2775,48.3615 219.8015,49.9145 C219.5325,50.1835 219.2795,50.4235 219.0405,50.6515 C218.5785,51.0925 218.1505,51.4995 217.7485,51.9755 L217.7485,48.8735 L205.9115,48.8735 Z" id="Fill-5" fill="#000000"></path>
                <path d="M335.747,98.2358 L335.747,71.1288 C335.747,63.7638 339.163,59.4948 345.121,59.4168 C347.49,59.3598 349.595,60.1858 351.179,61.7458 C353.233,63.7678 354.318,66.9568 354.318,70.9668 L354.318,98.2358 L366.964,98.2358 L366.964,67.4888 C366.964,56.6818 359.629,48.2418 349.523,47.4198 C343.91,46.9078 339.291,48.3438 335.783,51.6888 L335.666,51.8058 L335.666,32.5378 L323.019,32.5378 L323.101,98.2358 L335.747,98.2358 Z" id="Fill-7" fill="#000000"></path>
                <path d="M401.9936,82.4887 C400.0736,84.5497 396.4336,85.5897 391.1536,85.5897 L386.7236,85.5897 L386.7236,69.9287 L393.6636,69.9287 C398.0446,69.9287 403.2736,71.8187 403.5946,77.1487 C403.7546,79.4187 403.2336,81.1687 401.9936,82.4887 L401.9936,82.4887 Z M386.6336,45.1787 L392.2836,45.1787 C394.4646,45.1787 399.5736,45.7187 399.7946,50.6787 C399.8446,52.4787 399.3346,53.9387 398.2736,55.0287 C396.3346,57.0287 392.9736,57.4487 390.5046,57.4487 L386.6336,57.4487 L386.6336,45.1787 Z M406.6836,62.3287 L406.2836,62.1887 L406.7036,61.9287 C411.8536,58.6387 413.5336,51.9487 412.5046,47.3287 C410.5046,37.7887 402.9246,32.5387 391.1536,32.5387 L373.6636,32.5387 L373.7536,98.2387 L392.1236,98.2387 C405.7646,98.2387 414.2146,92.4197 416.5546,81.4187 C418.0046,74.5987 414.0046,64.7687 406.6836,62.3287 L406.6836,62.3287 Z" id="Fill-9" fill="#000000"></path>
                <path d="M445.5844,87.6088 C442.0144,87.7288 438.5944,86.3588 435.9344,83.7788 C433.1934,81.1288 431.6234,77.4588 431.6234,73.7188 C431.6234,66.1988 437.4534,60.1388 444.8844,59.8988 L445.1744,59.8988 C452.5444,59.8988 458.6134,65.8588 458.7734,73.3288 C459.0044,80.8388 452.9644,87.3798 445.5844,87.6088 M463.3134,54.9788 C458.2944,50.0388 451.7334,47.3888 444.8634,47.4988 C430.8134,47.6588 419.3044,59.3488 419.22398,73.5488 C419.1444,87.6888 430.4934,99.5288 444.5444,99.9388 L445.1234,99.9388 C451.8734,99.9388 458.3044,97.2888 463.2644,92.4288 C468.3444,87.4688 471.2544,80.6488 471.2544,73.7188 C471.2544,66.7688 468.3634,59.9388 463.3134,54.9788" id="Fill-11" fill="#000000"></path>
                <path d="M510.3236,83.1987 C507.8136,85.9287 504.4436,87.4987 500.8346,87.6087 C497.2736,87.7287 493.8446,86.3587 491.1836,83.7787 C488.4436,81.1287 486.8736,77.4587 486.8736,73.7187 C486.8736,66.1987 492.7036,60.1387 500.1346,59.8987 L500.4246,59.8987 C507.7946,59.8987 513.8636,65.8587 514.0236,73.3287 C514.1346,76.9687 512.8236,80.4687 510.3236,83.1987 M518.5636,54.9787 C513.5446,50.0387 507.0046,47.3887 500.1136,47.4987 C486.0636,47.6587 474.5536,59.3487 474.47318,73.5487 C474.3936,87.6887 485.7436,99.5287 499.7946,99.9387 L500.3736,99.9387 C507.1346,99.9387 513.5536,97.2887 518.5136,92.4287 C523.5936,87.4697 526.5046,80.6487 526.5046,73.7187 C526.5046,66.7687 523.6136,59.9387 518.5636,54.9787" id="Fill-13" fill="#000000"></path>
                <polygon id="Fill-15" fill="#000000" points="542.2396 75.8661 543.3516 74.9021 544.3406 74.9021 558.6546 98.4791 572.3916 98.4791 552.8706 66.1941 572.1656 48.7831 554.8936 48.7831 542.3686 60.0461 542.2396 60.0461 542.2396 32.2941 530.1206 32.2941 530.1206 98.4791 542.2396 98.4791"></polygon>
                <g id="Group-19" transform="translate(571.000000, 48.000000)">
                    <mask id="mask-4" fill="white">
                        <use xlink:href="#path-3"></use>
                    </mask>
                    <g id="Clip-18"></g>
                    <path d="M37.5873,35.4916 C37.5873,24.9836 29.0373,22.2796 22.1673,20.1066 L22.0163,20.5836 L22.1673,20.1066 C17.8373,18.7376 14.0983,17.5546 14.0983,14.7796 C14.0983,12.8686 15.6933,11.6826 18.2623,11.6826 C19.8643,11.6826 21.5403,12.2816 22.4323,13.1726 L22.9573,13.6966 L31.3983,5.3776 L30.8463,4.8456 C27.5743,1.6876 23.5643,0.1526 18.5823,0.1526 C8.4643,0.1526 1.9273,6.0196 1.9273,15.0996 C1.9273,25.9306 10.2713,28.1256 16.9783,29.8896 C21.6913,31.1296 25.4153,32.1086 25.4153,35.4916 C25.4153,38.3836 22.6933,40.4036 18.7963,40.4036 C14.9693,40.4036 12.4963,38.3906 12.4963,35.2786 L12.4963,34.5316 L0.0053,34.5316 L0.0053,35.2786 C0.0053,44.9296 7.9073,51.9336 18.7963,51.9336 C29.6843,51.9336 37.5873,45.0186 37.5873,35.4916" id="Fill-17" fill="#000000" mask="url(#mask-4)"></path>
                </g>
                <polygon id="Fill-20" fill="#000000" points="177.5209 45.5185 177.5209 59.8365 198.8709 59.8365 198.8709 72.4665 177.6109 72.4665 177.6109 98.2365 164.6209 98.2365 164.6209 32.5285 200.1839 32.5285 200.1839 45.5185"></polygon>
                <path d="M244.9438,65.3188 L245.3038,64.6588 C247.5338,60.8388 251.6138,58.7388 256.7838,58.7388 C262.2538,58.7388 266.4438,61.2388 267.9138,65.3188 L244.9438,65.3188 Z M280.9038,73.8388 C280.9038,57.6888 271.8638,47.6588 257.3238,47.6588 C242.4738,47.6588 231.6838,58.2188 231.6838,72.7588 C231.6838,88.1088 242.5638,99.6988 257.0038,99.6988 C264.7638,99.6988 271.9738,96.6388 277.2938,91.0898 L277.6538,90.7088 L268.6438,82.7688 L268.3138,83.1588 C265.3838,86.6588 261.4738,88.5088 257.0038,88.5088 C250.2838,88.5088 245.3238,84.1788 244.0538,77.2188 L243.8638,76.1788 L280.9038,76.1788 L280.9038,73.8388 Z" id="Fill-22" fill="#000000"></path>
                <path d="M304.5839,68.1088 C300.2539,66.7388 296.5139,65.5588 296.5139,62.7788 C296.5139,60.8688 298.1139,59.6788 300.6839,59.6788 C302.2839,59.6788 303.9639,60.2788 304.8539,61.1688 L305.3739,61.6988 L313.8139,53.3788 L313.2639,52.8488 C309.9939,49.6888 305.9839,48.1488 301.0039,48.1488 C290.8839,48.1488 284.3439,54.0188 284.3439,63.0988 C284.3439,73.9288 292.6939,76.1288 299.3939,77.8888 C304.1139,79.1288 307.8339,80.1088 307.8339,83.4888 C307.8339,86.3798 305.1139,88.3988 301.2139,88.3988 C297.3939,88.3988 294.9139,86.3888 294.9139,83.2788 L294.9139,82.5288 L282.4239,82.5288 L282.4239,83.2788 C282.4239,92.9288 290.3239,99.9388 301.2139,99.9388 C312.1039,99.9388 320.0039,93.0188 320.0039,83.4888 C320.0039,72.9788 311.4539,70.2788 304.5839,68.1088" id="Fill-24" fill="#000000"></path>
            </g>
        </g>
    </g>
</svg>