<?xml version="1.0" encoding="UTF-8"?> <svg xmlns="http://www.w3.org/2000/svg" xmlns:xlink="http://www.w3.org/1999/xlink" width="186px" height="29px" viewBox="0 0 186 29" version="1.1"><!-- Generator: Sketch 62 (91390) - https://sketch.com --><title>icon-credit-cards</title><desc>Created with Sketch.</desc><g id="Payments" stroke="none" stroke-width="1" fill="none" fill-rule="evenodd"><g id="Feature-images" transform="translate(-516.000000, -1539.000000)"><g id="icon-credit-cards" transform="translate(516.000000, 1539.000000)"><g id="cc-mastercard-icon"><g id="Page-1"><path d="M0.644844976,26.6715928 L0.644844976,2.42469026 C0.644844976,1.93377905 0.842261786,1.48857085 1.1613856,1.16616401 C1.47868378,0.8456016 1.91659642,0.646418117 2.39997,0.646418117 L39.59997,0.646418117 C40.0833436,0.646418117 40.5212562,0.8456016 40.8385544,1.16616401 C41.1576782,1.48857085 41.355095,1.93377905 41.355095,2.42469026 L41.355095,26.6715928 C41.355095,27.162504 41.1576782,27.6077123 40.8385544,27.9301191 C40.5212562,28.2506815 40.0833436,28.449865 39.59997,28.449865 L2.39997,28.449865 C1.91659642,28.449865 1.47868378,28.2506815 1.1613856,27.9301191 C0.842261786,27.6077123 0.644844976,27.162504 0.644844976,26.6715928 Z" id="Fill-1" stroke="#E6EBEC" stroke-width="0.989749951" fill="#FFFFFF"></path><path d="M17.58093,14.5481415 C17.58093,11.736107 18.92553,9.24201001 21.00003,7.6844496 C19.59213,6.62728465 17.84823,6.00171456 15.95943,6.00171456 C11.28753,6.00171456 7.50003,9.82787579 7.50003,14.5481415 C7.50003,19.2684073 11.28753,23.0945685 15.95943,23.0945685 C17.84823,23.0945685 19.59213,22.4689985 21.00003,21.4118335 C18.92553,19.8542731 17.58093,17.3601761 17.58093,14.5481415" id="Fill-5" fill="#FF0000"></path><path d="M26.04048,6.00159333 C24.15168,6.00159333 22.40778,6.6274665 20.99988,7.68432837 C23.07468,9.24188877 24.41898,11.7362889 24.41898,14.5480203 C24.41898,17.3600548 23.07468,19.8544549 20.99988,21.4120154 C22.40778,22.4688772 24.15168,23.0947504 26.04048,23.0947504 C30.71268,23.0947504 34.49988,19.2682861 34.49988,14.5480203 C34.49988,9.82805764 30.71268,6.00159333 26.04048,6.00159333" id="Fill-7" fill="#FFCC00"></path><path d="M24.41907,14.5481415 C24.41907,11.736107 23.07447,9.24201001 20.99997,7.6844496 C18.92547,9.24201001 17.58087,11.736107 17.58087,14.5481415 C17.58087,17.3601761 18.92547,19.8542731 20.99997,21.4118335 C23.07447,19.8542731 24.41907,17.3601761 24.41907,14.5481415" id="Fill-9" fill="#FF5D00"></path></g></g><g id="cc-visa-icon" transform="translate(48.179661, 0.000000)"><g id="Page-1"><path d="M0.644844976,26.6715928 L0.644844976,2.42469026 C0.644844976,1.93377905 0.842261786,1.48857085 1.1613856,1.16616401 C1.47868378,0.8456016 1.91659642,0.646418117 2.39997,0.646418117 L39.59997,0.646418117 C40.0833436,0.646418117 40.5212562,0.8456016 40.8385544,1.16616401 C41.1576782,1.48857085 41.355095,1.93377905 41.355095,2.42469026 L41.355095,26.6715928 C41.355095,27.162504 41.1576782,27.6077123 40.8385544,27.9301191 C40.5212562,28.2506815 40.0833436,28.449865 39.59997,28.449865 L2.39997,28.449865 C1.91659642,28.449865 1.47868378,28.2506815 1.1613856,27.9301191 C0.842261786,27.6077123 0.644844976,27.162504 0.644844976,26.6715928 Z" id="Fill-1" stroke="#E6EBEC" stroke-width="0.989749951" fill="#FFFFFF"></path><polygon id="Fill-5" fill="#000E8F" points="15.43689 19.602469 17.13789 9.51939457 19.85799 9.51939457 18.15609 19.602469"></polygon><path d="M28.02246,9.76768285 C27.48336,9.5634027 26.63886,9.34427132 25.58436,9.34427132 C22.89636,9.34427132 21.00276,10.7117966 20.98686,12.6718556 C20.97156,14.120608 22.33836,14.9286361 23.37036,15.4111494 C24.42906,15.9051801 24.78516,16.2203898 24.78006,16.6619865 C24.77346,17.3375658 23.93466,17.6464108 23.15286,17.6464108 C22.06386,17.6464108 21.48546,17.4936553 20.59206,17.1172221 L20.24166,16.9568895 L19.85976,19.213973 C20.49516,19.4955402 21.67026,19.7395246 22.89006,19.7519512 C25.74966,19.7519512 27.60606,18.4001863 27.62706,16.3073756 C27.63726,15.160194 26.91246,14.2873055 25.34316,13.5677787 C24.39216,13.1013289 23.80986,12.7900593 23.81616,12.3175477 C23.81616,11.8986825 24.30906,11.4504179 25.37376,11.4504179 C26.26356,11.4364759 26.90796,11.6322697 27.40986,11.8365498 L27.65376,11.9529349 L28.02246,9.76768285" id="Fill-7" fill="#000E8F"></path><path d="M31.64373,16.0280816 C31.86873,15.4470652 32.72763,13.2093791 32.72763,13.2093791 C32.71143,13.2363538 32.95083,12.625635 33.08823,12.2470802 L33.27213,13.1166347 C33.27213,13.1166347 33.79293,15.5234429 33.90183,16.0280816 L31.64373,16.0280816 Z M34.99833,9.52900241 L32.89623,9.52900241 C32.24493,9.52900241 31.75773,9.70873257 31.47153,10.3652175 L27.43143,19.605712 L30.28803,19.605712 C30.28803,19.605712 30.75513,18.3633614 30.86103,18.0905837 C31.17303,18.0905837 33.94803,18.0948269 34.34463,18.0948269 C34.42623,18.4476193 34.67583,19.605712 34.67583,19.605712 L37.20003,19.605712 L34.99833,9.52900241 L34.99833,9.52900241 Z" id="Fill-9" fill="#000E8F"></path><path d="M13.1553,9.52682019 L10.4919,16.4026356 L10.2081,15.0054078 C9.7125,13.3945042 8.1675,11.6493334 6.4407,10.7755357 L8.8758,19.5938311 L11.754,19.5904971 L16.0368,9.52682019 L13.1553,9.52682019" id="Fill-11" fill="#000E8F"></path><path d="M8.02128,9.52057661 L3.63468,9.52057661 L3.59988,9.73031232 C7.01268,10.5650119 9.27078,12.5820511 10.20828,15.005226 L9.25428,10.371946 C9.08958,9.73334318 8.61198,9.54270191 8.02128,9.52057661" id="Fill-13" fill="#FFCC00"></path></g></g><g id="cc-discover-icon" transform="translate(95.569492, 0.000000)"><g id="Page-1"><path d="M0.644844976,26.6715928 L0.644844976,2.42469026 C0.644844976,1.93377905 0.842261786,1.48857085 1.1613856,1.16616401 C1.47868378,0.8456016 1.91659642,0.646418117 2.39997,0.646418117 L39.59997,0.646418117 C40.0833436,0.646418117 40.5212562,0.8456016 40.8385544,1.16616401 C41.1576782,1.48857085 41.355095,1.93377905 41.355095,2.42469026 L41.355095,26.6715928 C41.355095,27.162504 41.1576782,27.6077123 40.8385544,27.9301191 C40.5212562,28.2506815 40.0833436,28.449865 39.59997,28.449865 L2.39997,28.449865 C1.91659642,28.449865 1.47868378,28.2506815 1.1613856,27.9301191 C0.842261786,27.6077123 0.644844976,27.162504 0.644844976,26.6715928 Z" id="Fill-1" stroke="#E6EBEC" stroke-width="0.989749951" fill="#FFFFFF"></path><path d="M36.22905,14.2860325 L35.90025,14.2860325 L35.90025,12.5190395 L36.24645,12.5190395 C36.95625,12.5190395 37.33725,12.815761 37.33725,13.3761675 C37.33725,13.9708228 36.95625,14.2860325 36.22905,14.2860325 L36.22905,14.2860325 Z M38.99985,17.4169138 L37.18185,14.9679767 C38.03025,14.7927928 38.49765,14.2157165 38.49765,13.3234305 C38.49765,12.2214088 37.75305,11.5915955 36.45405,11.5915955 L34.77465,11.5915955 L34.77465,17.4169138 L35.90025,17.4169138 L35.90025,15.0904235 L36.05625,15.0904235 L37.61445,17.4169138 L38.99985,17.4169138 Z M34.03005,17.4169138 L34.03005,16.437339 L31.96965,16.437339 L31.96965,14.8631088 L33.96105,14.8631088 L33.96105,13.883534 L31.96965,13.883534 L31.96965,12.5887494 L34.03005,12.5887494 L34.03005,11.5915955 L30.84405,11.5915955 L30.84405,17.4169138 L34.03005,17.4169138 Z M30.34185,11.5915955 L29.11245,11.5915955 L27.55425,15.5105011 L26.01285,11.5915955 L24.78315,11.5915955 L27.24225,17.5745187 L27.84825,17.5745187 L30.34185,11.5915955 Z M18.61875,15.8778417 C18.16875,16.3324711 17.77035,16.525234 17.26815,16.525234 C16.12515,16.525234 15.32895,15.6850788 15.32895,14.5133472 C15.32895,13.3937465 16.15995,12.5014605 17.21655,12.5014605 C17.75295,12.5014605 18.15135,12.6933141 18.61875,13.1664318 L18.61875,11.8186071 C18.13395,11.5737134 17.71875,11.4691486 17.23395,11.4691486 C15.53655,11.4691486 14.16855,12.815761 14.16855,14.5133472 C14.16855,16.2276033 15.50235,17.5569397 17.21655,17.5569397 C17.70135,17.5569397 18.11655,17.4696508 18.61875,17.2247571 L18.61875,15.8778417 Z M12.14295,13.8307969 C11.46735,13.5859032 11.27715,13.4113255 11.27715,13.0961158 C11.27715,12.7287752 11.62335,12.4487235 12.10815,12.4487235 C12.45435,12.4487235 12.73155,12.5887494 13.02615,12.9215381 L13.61475,12.1516989 C13.12995,11.7140423 12.54135,11.5043066 11.91795,11.5043066 C10.89615,11.5043066 10.11675,12.2214088 10.11675,13.1664318 C10.11675,13.9708228 10.48035,14.3909004 11.53695,14.77582 C11.96955,14.9328187 12.19455,15.0207137 12.31575,15.1080025 C12.54135,15.2480284 12.64515,15.4577641 12.64515,15.7026578 C12.64515,16.1748662 12.28155,16.525234 11.77935,16.525234 C11.24235,16.525234 10.80975,16.2627613 10.54995,15.7553948 L9.82275,16.454918 C10.34175,17.2247571 10.96515,17.5745187 11.81415,17.5745187 C12.99135,17.5745187 13.80495,16.7871005 13.80495,15.650527 C13.80495,14.723083 13.42395,14.3030054 12.14295,13.8307969 L12.14295,13.8307969 Z M8.26395,17.4169138 L9.38955,17.4169138 L9.38955,11.5915955 L8.26395,11.5915955 L8.26395,17.4169138 Z M5.96115,15.9827095 C5.61495,16.2973131 5.14755,16.437339 4.42035,16.437339 L4.12575,16.437339 L4.12575,12.5887494 L4.42035,12.5887494 C5.14755,12.5887494 5.59755,12.7111962 5.96115,13.0606547 C6.35955,13.4113255 6.58455,13.9532438 6.58455,14.5133472 C6.58455,15.0728445 6.35955,15.615369 5.96115,15.9827095 L5.96115,15.9827095 Z M4.64535,11.5915955 L2.99985,11.5915955 L2.99985,17.4169138 L4.64535,17.4169138 C5.51115,17.4169138 6.15195,17.2247571 6.70575,16.7525487 C7.36395,16.1924452 7.74495,15.3704753 7.74495,14.5133472 C7.74495,12.7990912 6.48075,11.5915955 4.64535,11.5915955 L4.64535,11.5915955 Z" id="Fill-5" fill="#333333"></path><path d="M22.08207,11.3817689 C20.35047,11.3817689 18.94827,12.7990003 18.94827,14.5478082 C18.94827,16.2972222 20.35047,17.7144536 22.08207,17.7144536 C23.81367,17.7144536 25.21647,16.2972222 25.21647,14.5478082 C25.21647,12.7990003 23.81367,11.3817689 22.08207,11.3817689" id="Fill-7" fill="#FF5D00"></path></g></g><g id="cc-applepay-icon" transform="translate(144.138983, 0.000000)"><g id="Page-1"><path d="M0.644844976,26.6715928 L0.644844976,2.42469026 C0.644844976,1.93377905 0.842261786,1.48857085 1.1613856,1.16616401 C1.47868378,0.8456016 1.91659642,0.646418117 2.39997,0.646418117 L39.59997,0.646418117 C40.0833436,0.646418117 40.5212562,0.8456016 40.8385544,1.16616401 C41.1576782,1.48857085 41.355095,1.93377905 41.355095,2.42469026 L41.355095,26.6715928 C41.355095,27.162504 41.1576782,27.6077123 40.8385544,27.9301191 C40.5212562,28.2506815 40.0833436,28.449865 39.59997,28.449865 L2.39997,28.449865 C1.91659642,28.449865 1.47868378,28.2506815 1.1613856,27.9301191 C0.842261786,27.6077123 0.644844976,27.162504 0.644844976,26.6715928 Z" id="Fill-1" stroke="#E6EBEC" stroke-width="0.989749951" fill="#FFFFFF"></path><path d="M30.5709,11.1952799 L32.4153,15.8518975 C32.5182,16.1152795 32.6142,16.3813892 32.7033,16.6502268 C32.7939,16.9236106 32.8746,17.1751722 32.9451,17.4040024 L32.9754,17.4040024 C33.0462,17.1851741 33.1266,16.9387649 33.2172,16.665078 C33.3081,16.3916942 33.4092,16.1104301 33.5199,15.8212858 L35.2443,11.1949768 L36,11.1949768 L33.8982,16.4489775 C33.7059,16.956647 33.5067,17.4615887 33.3006,17.9638027 C33.1308,18.3802433 32.9415,18.7888036 32.7336,19.187362 C32.5602,19.5207569 32.3655,19.8423315 32.151,20.1502672 C31.962,20.420317 31.7412,20.6658169 31.4931,20.8813113 C31.2114,21.129842 30.9513,21.3116938 30.7143,21.4262604 C30.4773,21.540827 30.3189,21.6129616 30.2382,21.642664 L29.9955,21.0604353 C30.2031,20.9676909 30.405,20.8631261 30.6009,20.747044 C30.8376,20.6061089 31.056,20.4357744 31.251,20.2396776 C31.4328,20.0605536 31.632,19.8247525 31.8486,19.5307588 C32.0652,19.2373713 32.2593,18.881548 32.4309,18.463592 C32.4912,18.3044717 32.5218,18.1996038 32.5218,18.1498977 C32.5218,18.080794 32.4915,17.9759262 32.4309,17.8365065 L29.8143,11.1946737 L30.5709,11.1946737 L30.5709,11.1952799 Z M28.4697,14.5240765 C28.0683,14.5143777 27.6666,14.529229 27.267,14.5686302 C26.8491,14.6080314 26.4633,14.6956233 26.1105,14.8295875 C25.7574,14.9641578 25.4652,15.1602546 25.2336,15.4190903 C25.002,15.6776229 24.8856,16.0210196 24.8856,16.4492806 C24.8856,16.9560408 25.0317,17.3294431 25.3245,17.5682751 C25.6164,17.806804 25.944,17.9265231 26.307,17.9265231 C26.5995,17.9265231 26.8617,17.8868188 27.0933,17.806804 C27.3255,17.7273954 27.5265,17.620406 27.6981,17.4864418 C27.8697,17.3524777 28.0131,17.2000253 28.1292,17.0312062 C28.2453,16.861781 28.3335,16.6878095 28.3944,16.5083824 C28.4448,16.3092547 28.4703,16.1649856 28.4703,16.0752721 L28.4703,14.5240765 L28.4697,14.5240765 Z M29.1807,16.658107 C29.1807,16.9466452 29.1855,17.2354864 29.1957,17.5237214 C29.2056,17.8122596 29.2356,18.0904928 29.2863,18.3593303 L28.6209,18.3593303 L28.5153,17.3442944 L28.4844,17.3442944 C28.3938,17.4840171 28.278,17.6231337 28.137,17.7622503 C27.996,17.9013669 27.8322,18.0283601 27.6459,18.1429267 C27.459,18.2571902 27.2475,18.3493285 27.0105,18.4190383 C26.757,18.4905667 26.4948,18.5257247 26.2314,18.5233 C25.8789,18.5233 25.5687,18.4660167 25.3011,18.3517532 C25.0338,18.2371865 24.8148,18.0880681 24.6432,17.9040947 C24.4731,17.7216368 24.342,17.5055363 24.258,17.2697351 C24.174,17.0402988 24.1305,16.7978298 24.1296,16.5535422 C24.1296,15.7079315 24.4899,15.056296 25.2108,14.5983326 C25.9314,14.1403693 27.018,13.921541 28.4703,13.9415447 L28.4703,13.7475694 C28.4703,13.5581405 28.4526,13.3414338 28.4172,13.0980555 C28.3818,12.8540711 28.3023,12.6188761 28.1826,12.403988 C28.0617,12.1854627 27.8802,12.0014894 27.6384,11.8523709 C27.3966,11.7029494 27.0684,11.6283902 26.6556,11.6283902 C26.3424,11.6283902 26.0328,11.6753685 25.7253,11.7699315 C25.4178,11.8641913 25.1382,11.9960338 24.8862,12.1654591 L24.6591,11.6429383 C24.9816,11.42411 25.3146,11.2677175 25.6572,11.1731546 C26.007,11.0779855 26.3682,11.0300978 26.7309,11.0316133 C27.2352,11.0316133 27.6459,11.1158713 27.9636,11.2849934 C28.281,11.4541155 28.5306,11.6732469 28.7121,11.9414783 C28.8954,12.2139529 29.0214,12.5212823 29.0826,12.8446754 C29.1477,13.1714024 29.1807,13.5038881 29.1813,13.837283 L29.1813,16.658107 L29.1807,16.658107 Z M18.6876,13.4341782 C18.8589,13.4838844 19.0506,13.5187393 19.2624,13.5384399 C19.4742,13.5584436 19.7007,13.5681424 19.9428,13.5681424 C20.85,13.5681424 21.5532,13.3593159 22.0524,12.9413599 C22.5513,12.523707 22.8009,11.9114727 22.8009,11.1055663 C22.8009,10.7176159 22.7355,10.3790685 22.6044,10.0905304 C22.4799,9.81047864 22.2876,9.56679727 22.0449,9.38191463 C21.8031,9.19763817 21.516,9.05852157 21.183,8.96365556 C20.85,8.86939573 20.4822,8.82211427 20.0784,8.82211427 C19.7562,8.82211427 19.4787,8.83454081 19.2468,8.85939388 C19.0152,8.88424696 18.8283,8.91182781 18.6873,8.94153027 L18.6873,13.4341782 L18.6876,13.4341782 Z M17.9766,8.41961569 C18.2982,8.36566633 18.621,8.32080956 18.945,8.28504538 C19.3317,8.24352256 19.7205,8.22351886 20.1096,8.22533738 C20.7147,8.22533738 21.2361,8.29747192 21.6744,8.44174099 C22.1136,8.58601006 22.4736,8.7927149 22.7556,9.06124935 C23.0001,9.3031122 23.193,9.59225651 23.3232,9.91170946 C23.4591,10.2399519 23.5263,10.6185067 23.5263,11.0461614 C23.5263,11.5635297 23.4339,12.0163406 23.2473,12.404291 C23.0679,12.783452 22.8069,13.1174531 22.4835,13.3817443 C22.1607,13.6451263 21.7776,13.8418293 21.3342,13.9712471 C20.8902,14.1003619 20.4063,14.1652223 19.8819,14.1652223 C19.4082,14.1652223 19.0101,14.1303674 18.6876,14.0609607 L18.6876,18.3590272 L17.9766,18.3590272 L17.9766,8.41961569 Z M12.2637,9.21976347 C12.6585,8.75240443 12.9243,8.10167818 12.8517,7.45367971 C12.2829,7.47610809 11.5947,7.82465732 11.187,8.29171328 C10.821,8.70572914 10.5009,9.36797266 10.5873,10.0029384 C11.2218,10.0508261 11.8692,9.68742561 12.264,9.21946039 L12.2637,9.21976347 Z M13.6863,13.3302196 C13.7022,15.0041652 15.1866,15.5609347 15.2031,15.5682087 C15.1905,15.60761 14.9661,16.3619917 14.4213,17.1415296 C13.95,17.8149874 13.461,18.4866266 12.6909,18.5005685 C11.934,18.5142074 11.691,18.0613965 10.8255,18.0613965 C9.9603,18.0613965 9.69,18.4866266 8.9736,18.5142074 C8.2302,18.5417883 7.6641,17.7852849 7.1892,17.1139488 C6.2184,15.7403617 5.4765,13.2335351 6.4728,11.5411013 C6.9675,10.700643 7.8516,10.1684235 8.8116,10.1550877 C9.5415,10.1414489 10.2306,10.6354795 10.677,10.6354795 C11.1228,10.6354795 11.9604,10.0411273 12.8412,10.1284161 C13.2093,10.1435705 14.2437,10.2742006 14.9079,11.2255885 C14.8542,11.2583218 13.6734,11.9308703 13.6863,13.3302196 L13.6863,13.3302196 Z" id="Fill-5" fill="#000000"></path></g></g></g></g></g></svg> 