<?xml version="1.0" encoding="UTF-8"?> <svg xmlns="http://www.w3.org/2000/svg" xmlns:xlink="http://www.w3.org/1999/xlink" width="250px" height="34px" viewBox="0 0 250 34" version="1.1"><title>freshbooks-payments</title><g id="Page-1" stroke="none" stroke-width="1" fill="none" fill-rule="evenodd"><g id="Payments-Tabbed" transform="translate(-720.000000, -221.000000)" fill-rule="nonzero"><g id="Group-9" transform="translate(675.334317, 147.000000)"><g id="freshbooks-payments" transform="translate(44.665683, 74.000000)"><g id="Group" transform="translate(157.777778, 7.777778)" fill="#0075DD"><path d="M1.77777778,16.8888889 L0.222222222,16.8888889 L0.222222222,0.777777778 L5.77777778,0.777777778 C9.77777778,0.777777778 12,2.66666667 12,5.66666667 C12,8.66666667 9.77777778,10.5555556 5.77777778,10.5555556 L1.88888889,10.5555556 L1.88888889,16.8888889 L1.77777778,16.8888889 Z M5.66666667,9.22222222 C8.66666667,9.22222222 10.2222222,7.88888889 10.2222222,5.66666667 C10.2222222,3.44444444 8.66666667,2.11111111 5.66666667,2.11111111 L1.77777778,2.11111111 L1.77777778,9.22222222 C1.77777778,9.22222222 5.66666667,9.22222222 5.66666667,9.22222222 Z" id="Shape"></path><path d="M21.3333333,15 C21.3333333,15.5555556 21.6666667,15.8888889 22.2222222,15.8888889 C22.4444444,15.8888889 22.8888889,15.7777778 23.2222222,15.5555556 L23.2222222,16.4444444 C22.8888889,16.7777778 22.5555556,17.1111111 21.7777778,17.1111111 C20.6666667,17.1111111 19.8888889,16.1111111 19.7777778,14.7777778 C19.2222222,16.1111111 17.5555556,17.2222222 15.6666667,17.2222222 C13.5555556,17.2222222 12.2222222,16.1111111 12.2222222,14.1111111 C12.2222222,12 14.1111111,11.1111111 16.8888889,10.5555556 L19.8888889,9.88888889 L19.8888889,9.33333333 C19.8888889,7.66666667 18.8888889,6.55555556 17.1111111,6.55555556 C15.3333333,6.55555556 14.3333333,7.55555556 13.8888889,9 L12.5555556,8.77777778 C13,6.77777778 14.6666667,5.33333333 17,5.33333333 C19.7777778,5.33333333 21.2222222,6.77777778 21.2222222,9.55555556 L21.2222222,15 L21.3333333,15 Z M19.7777778,11.1111111 L17.1111111,11.6666667 C15.1111111,12.1111111 13.7777778,12.5555556 13.7777778,14 C13.7777778,15 14.4444444,15.8888889 15.8888889,15.8888889 C18.1111111,15.8888889 19.7777778,14.2222222 19.7777778,11.7777778 L19.7777778,11.1111111 Z" id="Shape"></path><polygon id="Path" points="25.2222222 21.2222222 27.1111111 16.7777778 22.4444444 5.77777778 24.1111111 5.77777778 27.8888889 14.8888889 28 14.8888889 31.6666667 5.77777778 33.2222222 5.77777778 26.7777778 21.2222222 25.2222222 21.2222222"></polygon><path d="M46.8888889,5.44444444 C49.7777778,5.44444444 50.7777778,7.44444444 50.7777778,10 L50.7777778,16.8888889 L49.2222222,16.8888889 L49.2222222,10 C49.2222222,8 48.3333333,6.77777778 46.4444444,6.77777778 C44.7777778,6.77777778 43.3333333,8.11111111 43.3333333,10.3333333 L43.3333333,17 L41.7777778,17 L41.7777778,10.1111111 C41.7777778,8.11111111 40.8888889,6.88888889 39,6.88888889 C37.3333333,6.88888889 35.8888889,8.22222222 35.8888889,10.4444444 L35.8888889,17.1111111 L34.3333333,17.1111111 L34.3333333,6 L35.8888889,6 L35.8888889,7.77777778 C36.4444444,6.44444444 37.7777778,5.44444444 39.4444444,5.44444444 C41.4444444,5.44444444 42.6666667,6.44444444 43.1111111,7.88888889 C43.7777778,6.44444444 45.2222222,5.44444444 46.8888889,5.44444444 Z" id="Path"></path><path d="M63.1111111,13.1111111 C62.5555556,15.6666667 60.7777778,17.2222222 58,17.2222222 C54.7777778,17.2222222 52.3333333,14.8888889 52.3333333,11.5555556 C52.3333333,8 54.6666667,5.55555556 57.8888889,5.55555556 C61.3333333,5.55555556 63.1111111,8.11111111 63.1111111,11.1111111 L63.1111111,11.7777778 L54,11.7777778 C54.1111111,14.2222222 55.7777778,16 58,16 C60,16 61.3333333,15 61.7777778,13 L63.1111111,13.1111111 Z M61.4444444,10.5555556 C61.4444444,8.55555556 60.2222222,6.66666667 57.8888889,6.66666667 C55.6666667,6.66666667 54.2222222,8.55555556 54,10.5555556 L61.4444444,10.5555556 Z" id="Shape"></path><path d="M66.4444444,16.8888889 L64.8888889,16.8888889 L64.8888889,5.77777778 L66.4444444,5.77777778 L66.4444444,7.77777778 C67,6.44444444 68.5555556,5.44444444 70.2222222,5.44444444 C73.1111111,5.44444444 74.3333333,7.33333333 74.3333333,10 L74.3333333,16.8888889 L72.7777778,16.8888889 L72.7777778,10 C72.7777778,8 71.7777778,6.77777778 69.8888889,6.77777778 C68.1111111,6.77777778 66.5555556,8.11111111 66.5555556,10.3333333 L66.4444444,16.8888889 L66.4444444,16.8888889 Z" id="Path"></path><path d="M76.8888889,6.88888889 L75.2222222,6.88888889 L75.2222222,6.11111111 L75.8888889,6 C76.8888889,5.77777778 77.1111111,5.33333333 77.3333333,4.22222222 L77.6666667,2.66666667 L78.4444444,2.66666667 L78.4444444,5.77777778 L81.6666667,5.77777778 L81.6666667,6.88888889 L78.4444444,6.88888889 L78.4444444,14.4444444 C78.4444444,15.4444444 78.8888889,15.8888889 79.8888889,15.8888889 C80.6666667,15.8888889 81.4444444,15.5555556 82.1111111,15.1111111 L82.1111111,16.2222222 C81.3333333,16.8888889 80.5555556,17.1111111 79.4444444,17.1111111 C78,17.1111111 77,16.3333333 77,14.3333333 L77,6.88888889 L76.8888889,6.88888889 L76.8888889,6.88888889 Z" id="Path"></path><path d="M83.7777778,13 C84,14.8888889 85.3333333,16 87.4444444,16 C89.1111111,16 90.3333333,15.3333333 90.3333333,14 C90.3333333,12.7777778 89.4444444,12.3333333 87.8888889,12.1111111 L86,11.7777778 C84,11.4444444 82.8888889,10.5555556 82.8888889,8.77777778 C82.8888889,6.77777778 84.5555556,5.44444444 87,5.44444444 C89.8888889,5.44444444 91.5555556,6.77777778 91.6666667,9.44444444 L90.4444444,9.55555556 C90.1111111,7.55555556 89,6.66666667 86.8888889,6.66666667 C85.3333333,6.66666667 84.2222222,7.33333333 84.2222222,8.55555556 C84.2222222,9.66666667 84.8888889,10.2222222 86.2222222,10.4444444 L88.2222222,10.7777778 C90.4444444,11.1111111 91.6666667,11.8888889 91.6666667,13.8888889 C91.6666667,16.1111111 89.6666667,17.2222222 87.3333333,17.2222222 C84.6666667,17.2222222 82.5555556,15.8888889 82.4444444,13.1111111 L83.7777778,13 Z" id="Path"></path></g><g id="Group"><path d="M14.2222222,0.555555556 C6.66666667,0.555555556 0.555555556,6.66666667 0.555555556,14.1111111 L0.555555556,32.7777778 L19.2222222,32.7777778 C26.7777778,32.7777778 32.8888889,26.6666667 32.8888889,19.1111111 L32.8888889,0.555555556 L14.2222222,0.555555556 Z M25.2222222,6.22222222 C25.2222222,8.66666667 23.2222222,10.6666667 20.7777778,10.6666667 L16,10.6666667 L16,14.4444444 L22.4444444,14.4444444 L22.4444444,18.8888889 L16,18.8888889 L16,28.1111111 L10.6666667,28.1111111 L10.6666667,5.11111111 L15.8888889,5.11111111 L15.8888889,9.33333333 C16,7 18,5.11111111 20.3333333,5.11111111 L25.1111111,5.11111111 L25.1111111,6.22222222 L25.2222222,6.22222222 Z" id="Shape" fill="#0075DD"></path><path d="M51.1111111,12.4444444 L51.1111111,24.5555556 L54.2222222,24.5555556 L54.2222222,17.8888889 C54.2222222,17.5555556 54.2222222,16.3333333 54.6666667,15.7777778 C55.4444444,14.8888889 56.4444444,15 56.5555556,15 L56.6666667,15 L56.6666667,12 L56.5555556,12 C55.6666667,11.8888889 54.7777778,12.2222222 54.3333333,12.6666667 C54.2222222,12.7777778 54.2222222,12.7777778 54.1111111,12.8888889 C54,13 53.8888889,13.1111111 53.7777778,13.2222222 L53.7777778,12.4444444 C53.7777778,12.4444444 51.1111111,12.4444444 51.1111111,12.4444444 Z" id="Path" fill="#000000"></path><path d="M83,24.5555556 L83,17.8888889 C83,16.1111111 83.8888889,15 85.3333333,15 C85.8888889,15 86.4444444,15.2222222 86.7777778,15.5555556 C87.3333333,16 87.5555556,16.8888889 87.5555556,17.7777778 L87.5555556,24.4444444 L90.6666667,24.4444444 L90.6666667,16.8888889 C90.6666667,14.2222222 88.8888889,12.1111111 86.3333333,12 C85,11.8888889 83.7777778,12.2222222 83,13 L83,13 L83,8.22222222 L79.8888889,8.22222222 L79.8888889,24.3333333 L83,24.3333333 L83,24.5555556 L83,24.5555556 Z" id="Path" fill="#000000"></path><path d="M100.444444,15.7777778 L100.444444,15.7777778 L100.444444,15.7777778 C101.666667,14.8888889 102.111111,13.2222222 101.888889,12.1111111 C101.444444,9.77777778 99.5555556,8.44444444 96.6666667,8.44444444 L92.3333333,8.44444444 L92.3333333,24.5555556 L96.8888889,24.5555556 C100.222222,24.5555556 102.333333,23.1111111 102.888889,20.4444444 C103.222222,18.7777778 102.222222,16.3333333 100.444444,15.7777778 M95.4444444,11.5555556 L96.7777778,11.5555556 C97.3333333,11.5555556 98.5555556,11.6666667 98.6666667,12.8888889 C98.6666667,13.3333333 98.5555556,13.6666667 98.3333333,14 C97.8888889,14.4444444 97,14.5555556 96.4444444,14.5555556 L95.4444444,14.5555556 C95.4444444,14.5555556 95.4444444,11.5555556 95.4444444,11.5555556 Z M99.2222222,20.6666667 C98.7777778,21.2222222 97.8888889,21.4444444 96.5555556,21.4444444 L95.4444444,21.4444444 L95.4444444,17.5555556 L97.1111111,17.5555556 C98.2222222,17.5555556 99.4444444,18 99.5555556,19.3333333 C99.6666667,20 99.5555556,20.3333333 99.2222222,20.6666667" id="Shape" fill="#000000"></path><path d="M114.333333,14 C113.111111,12.7777778 111.444444,12.1111111 109.777778,12.1111111 C106.333333,12.1111111 103.555556,15 103.444444,18.5555556 C103.444444,22 106.222222,24.8888889 109.666667,25 L109.777778,25 C111.444444,25 113,24.3333333 114.222222,23.1111111 C115.444444,21.8888889 116.222222,20.2222222 116.222222,18.5555556 C116.222222,16.8888889 115.555556,15.2222222 114.333333,14 M109.888889,22 C109,22 108.222222,21.6666667 107.555556,21.1111111 C106.888889,20.4444444 106.444444,19.5555556 106.444444,18.6666667 C106.444444,16.7777778 107.888889,15.3333333 109.666667,15.2222222 L109.777778,15.2222222 C111.555556,15.2222222 113.111111,16.6666667 113.111111,18.5555556 C113.222222,20.3333333 111.777778,21.8888889 109.888889,22" id="Shape" fill="#000000"></path><path d="M127.888889,14 C126.666667,12.7777778 125,12.1111111 123.333333,12.1111111 C119.888889,12.1111111 117.111111,15 117,18.5555556 C117,22 119.777778,24.8888889 123.222222,25 L123.333333,25 C125,25 126.555556,24.3333333 127.777778,23.1111111 C129,21.8888889 129.777778,20.2222222 129.777778,18.5555556 C129.777778,16.8888889 129.111111,15.2222222 127.888889,14 M125.777778,20.8888889 C125.111111,21.5555556 124.333333,21.8888889 123.444444,22 C122.555556,22 121.777778,21.6666667 121.111111,21.1111111 C120.444444,20.4444444 120,19.5555556 120,18.6666667 C120,16.7777778 121.444444,15.3333333 123.222222,15.2222222 L123.333333,15.2222222 C125.111111,15.2222222 126.666667,16.6666667 126.666667,18.5555556 C126.777778,19.3333333 126.444444,20.2222222 125.777778,20.8888889" id="Shape" fill="#000000"></path><polygon id="Path" fill="#000000" points="133.666667 19.1111111 133.888889 18.8888889 134.222222 18.8888889 137.666667 24.6666667 141.111111 24.6666667 136.222222 16.6666667 141 12.4444444 136.777778 12.4444444 133.666667 15.2222222 133.666667 15.2222222 133.666667 8.33333333 130.666667 8.33333333 130.666667 24.6666667 133.666667 24.6666667"></polygon><path d="M149.888889,21 C149.888889,18.4444444 147.777778,17.7777778 146.111111,17.2222222 L146.111111,17.3333333 L146.111111,17.2222222 C145,16.8888889 144.111111,16.5555556 144.111111,15.8888889 C144.111111,15.4444444 144.555556,15.1111111 145.111111,15.1111111 C145.555556,15.1111111 145.888889,15.2222222 146.111111,15.4444444 L146.222222,15.5555556 L148.333333,13.5555556 L148.222222,13.4444444 C147.444444,12.6666667 146.444444,12.3333333 145.222222,12.3333333 C142.777778,12.3333333 141.111111,13.7777778 141.111111,16 C141.111111,18.6666667 143.111111,19.2222222 144.777778,19.6666667 C145.888889,20 146.888889,20.2222222 146.888889,21 C146.888889,21.6666667 146.222222,22.2222222 145.222222,22.2222222 C144.333333,22.2222222 143.666667,21.7777778 143.666667,21 L143.666667,20.7777778 L140.555556,20.7777778 L140.555556,21 C140.555556,23.3333333 142.444444,25.1111111 145.222222,25.1111111 C148,25 149.888889,23.3333333 149.888889,21" id="Path" fill="#000000"></path><polygon id="Path" fill="#000000" points="44.1111111 11.6666667 44.1111111 15.1111111 49.4444444 15.1111111 49.4444444 18.2222222 44.2222222 18.2222222 44.2222222 24.5555556 41 24.5555556 41 8.44444444 49.6666667 8.44444444 49.6666667 11.6666667"></polygon><path d="M69.5555556,18.5555556 C69.5555556,14.5555556 67.3333333,12.1111111 63.7777778,12.1111111 C60.1111111,12.1111111 57.4444444,14.6666667 57.4444444,18.2222222 C57.4444444,22 60.1111111,24.8888889 63.6666667,24.8888889 C65.5555556,24.8888889 67.3333333,24.1111111 68.6666667,22.7777778 L68.7777778,22.6666667 L66.5555556,20.6666667 L66.4444444,20.7777778 C65.7777778,21.6666667 64.7777778,22.1111111 63.6666667,22.1111111 C62,22.1111111 60.7777778,21 60.4444444,19.3333333 L60.4444444,19.1111111 L69.5555556,19.1111111 C69.5555556,19.1111111 69.5555556,18.5555556 69.5555556,18.5555556 Z M60.6666667,16.4444444 L60.7777778,16.3333333 C61.3333333,15.4444444 62.3333333,14.8888889 63.5555556,14.8888889 C64.8888889,14.8888889 65.8888889,15.5555556 66.3333333,16.5555556 L60.6666667,16.5555556 L60.6666667,16.4444444 Z" id="Shape" fill="#000000"></path><path d="M75.3333333,17.2222222 C74.2222222,16.8888889 73.3333333,16.5555556 73.3333333,15.8888889 C73.3333333,15.4444444 73.7777778,15.1111111 74.3333333,15.1111111 C74.7777778,15.1111111 75.1111111,15.2222222 75.3333333,15.4444444 L75.5555556,15.5555556 L77.6666667,13.5555556 L77.5555556,13.4444444 C76.7777778,12.6666667 75.7777778,12.3333333 74.5555556,12.3333333 C72.1111111,12.3333333 70.4444444,13.7777778 70.4444444,16 C70.4444444,18.6666667 72.4444444,19.2222222 74.1111111,19.6666667 C75.2222222,20 76.2222222,20.2222222 76.2222222,21 C76.2222222,21.6666667 75.5555556,22.2222222 74.5555556,22.2222222 C73.6666667,22.2222222 73,21.7777778 73,21 L73,20.7777778 L69.8888889,20.7777778 L69.8888889,21 C69.8888889,23.3333333 71.7777778,25.1111111 74.5555556,25.1111111 C77.2222222,25.1111111 79.2222222,23.4444444 79.2222222,21.1111111 C79.1111111,18.3333333 77,17.6666667 75.3333333,17.2222222" id="Path" fill="#000000"></path></g></g></g></g></g></svg> 