<?xml version="1.0" encoding="UTF-8"?> <svg xmlns="http://www.w3.org/2000/svg" width="186" height="210" viewBox="0 0 186 210" fill="none"><rect x="0.525" y="0.525" width="184.59" height="208.11" rx="3.675" fill="white" stroke="#001B40" stroke-width="1.05"></rect><path d="M56.0463 126.328C58.9359 126.328 117.215 126.445 121.751 126.328C126.287 126.21 135.359 126.26 137.829 126.328C140.298 126.395 140.13 128.268 140.113 129.058C140.097 129.847 140.307 132.544 132.259 132.317C124.212 132.09 85.6731 132.115 76.3911 132.317C67.1091 132.518 58.6586 132.392 55.1306 132.317C52.6106 132.25 52.3419 129.2 52.4595 128.495C52.5771 127.789 53.7783 126.328 56.0463 126.328Z" fill="#9ACDF1"></path><path d="M137.862 123.48C135.93 123.48 84.707 123.388 78.4658 123.48C67.9658 123.64 49.4355 123.623 46.7727 123.64C44.1099 123.656 44.5466 121.346 44.5466 120.103C44.5466 118.86 45.2858 118.499 47.0666 118.054C48.8474 117.608 88.0586 118.163 103.347 118.054C109.285 118.054 133.587 118.003 136.375 117.928C138.055 117.877 139.853 118.768 139.836 120.75C139.819 122.06 139.786 123.472 137.862 123.48Z" fill="#9ACDF1"></path><path d="M158.501 136.046C164.49 136.046 169.345 131.165 169.345 125.143C169.345 119.122 164.49 114.24 158.501 114.24C152.512 114.24 147.657 119.122 147.657 125.143C147.657 131.165 152.512 136.046 158.501 136.046Z" fill="#9ACDF1"></path><path d="M56.0463 37.2876C58.9359 37.2876 117.215 37.4052 121.751 37.2876C126.287 37.17 135.359 37.2204 137.829 37.2876C140.298 37.3548 140.13 39.228 140.113 40.0176C140.097 40.8072 140.307 43.5036 132.259 43.2768C124.212 43.05 85.6731 43.0752 76.3911 43.2768C67.1091 43.4784 58.6586 43.3524 55.1306 43.2768C52.6106 43.2096 52.3419 40.1604 52.4595 39.4548C52.5771 38.7492 53.7783 37.2876 56.0463 37.2876Z" fill="#9ACDF1"></path><path d="M137.862 34.44C135.93 34.44 84.707 34.3476 78.4658 34.44C67.9658 34.5996 49.4355 34.5828 46.7727 34.5996C44.1099 34.6164 44.5466 32.3064 44.5466 31.0632C44.5466 29.82 45.2858 29.4588 47.0666 29.0136C48.8474 28.5684 88.0586 29.1228 103.347 29.0136C109.285 29.0136 133.587 28.9632 136.375 28.8876C138.055 28.8372 139.853 29.7276 139.836 31.71C139.819 33.0204 139.786 34.4316 137.862 34.44Z" fill="#9ACDF1"></path><path d="M158.501 47.0063C164.49 47.0063 169.345 42.1248 169.345 36.1031C169.345 30.0815 164.49 25.2 158.501 25.2C152.512 25.2 147.657 30.0815 147.657 36.1031C147.657 42.1248 152.512 47.0063 158.501 47.0063Z" fill="#9ACDF1"></path><path d="M46.4268 81.7992C48.6108 81.7992 92.6269 81.9084 96.0541 81.7992C99.4813 81.69 106.327 81.732 108.2 81.7992C110.074 81.8664 109.939 83.7396 109.88 84.5292C109.822 85.3188 110.023 88.0152 103.95 87.7884C97.8768 87.5616 68.7624 87.5952 61.7568 87.7884C54.7512 87.9816 48.3168 87.864 45.696 87.7884C43.7808 87.7296 43.5876 84.6721 43.68 83.9665C43.8022 83.336 44.1468 82.7704 44.6509 82.3727C45.1551 81.9749 45.7852 81.7714 46.4268 81.7992Z" fill="#CDE6F8"></path><path d="M134.35 78.2461C132.493 78.2461 82.9752 78.1453 76.944 78.2461C66.8052 78.4057 48.888 78.3805 46.3092 78.3973C43.7304 78.4141 44.1672 76.1041 44.1672 74.8609C44.1672 73.6177 44.8812 73.2649 46.5948 72.8113C48.3084 72.3577 86.2175 72.9205 100.993 72.8113C106.739 72.7693 130.2 72.7609 132.913 72.6853C134.593 72.6349 136.273 73.5253 136.273 75.5077C136.248 76.8265 136.214 78.2293 134.35 78.2461Z" fill="#CDE6F8"></path><path d="M26.8044 91.5264C32.7936 91.5264 37.6488 86.6448 37.6488 80.6232C37.6488 74.6015 32.7936 69.72 26.8044 69.72C20.8152 69.72 15.96 74.6015 15.96 80.6232C15.96 86.6448 20.8152 91.5264 26.8044 91.5264Z" fill="#CDE6F8"></path><path d="M47.4226 166.782V173.674H52.2147V172.887H48.3745V166.782H47.4226Z" fill="#001B40"></path><path d="M56.6204 171.979C56.4235 172.712 55.953 173.095 55.1544 173.095C54.301 173.095 53.6336 172.438 53.5899 171.508H57.3972V171.147C57.3972 169.845 56.6204 168.762 55.0997 168.762C53.7211 168.762 52.6818 169.845 52.6818 171.355C52.6818 172.843 53.7211 173.806 55.1434 173.806C56.336 173.806 57.1346 173.149 57.3753 172.066L56.6204 171.979ZM53.6117 170.917C53.7211 170.13 54.2354 169.451 55.0997 169.451C56.0078 169.451 56.4344 170.152 56.4673 170.917H53.6117Z" fill="#001B40"></path><path d="M58.5051 172.558C58.5051 173.488 58.9864 173.806 59.6648 173.806C60.1899 173.806 60.54 173.664 60.8901 173.401V172.788C60.6166 172.941 60.2993 173.073 59.993 173.073C59.5772 173.073 59.4022 172.876 59.4022 172.449V169.55H60.7479V168.893H59.4022V167.57H58.888L58.7457 168.237C58.6363 168.696 58.5379 168.915 58.0893 169.003L57.783 169.057V169.55H58.5051V172.558Z" fill="#001B40"></path><path d="M61.4879 167.821H62.0021C62.0021 168.303 61.9037 168.445 61.4879 168.478V169.014C62.3741 169.003 62.5711 168.576 62.5711 167.81V166.782H61.4879V167.821Z" fill="#001B40"></path><path d="M62.6919 172.066C62.7794 173.248 63.6875 173.806 64.8801 173.806C65.996 173.806 66.8384 173.292 66.8384 172.34C66.8384 171.475 66.2695 171.114 65.3067 170.95L64.4096 170.808C63.9173 170.72 63.6766 170.524 63.6766 170.141C63.6766 169.703 64.0704 169.429 64.6722 169.429C65.4818 169.429 65.9304 169.769 66.0398 170.502L66.7728 170.458C66.6853 169.353 65.9413 168.762 64.6722 168.762C63.5672 168.762 62.8341 169.353 62.8341 170.228C62.8341 171.049 63.3702 171.432 64.2674 171.574L65.077 171.716C65.6678 171.825 65.9851 171.979 65.9851 172.427C65.9851 172.909 65.5146 173.138 64.8801 173.138C64.0595 173.138 63.5453 172.744 63.4578 172.011L62.6919 172.066Z" fill="#001B40"></path><path d="M73.6797 170.392C73.6797 170.086 73.5922 169.812 73.45 169.583C73.6907 169.462 74.0517 169.386 74.369 169.386V168.598C73.8548 168.598 73.4062 168.871 73.1546 169.254C72.7935 168.948 72.2574 168.762 71.6557 168.762C70.485 168.762 69.6535 169.386 69.6535 170.392C69.6535 170.917 69.8833 171.344 70.2772 171.629C69.8505 171.815 69.5551 172.11 69.5551 172.526C69.5551 172.887 69.752 173.204 70.1896 173.346C69.5988 173.456 69.205 173.806 69.205 174.353C69.205 175.239 70.2772 175.644 71.5682 175.644C72.9904 175.644 74.3252 175.184 74.3252 173.992C74.3252 173.248 73.7782 172.701 72.7388 172.701H70.868C70.4522 172.701 70.2881 172.548 70.2881 172.285C70.2881 172.066 70.4413 171.913 70.6054 171.815C70.9008 171.946 71.2618 172.011 71.6557 172.011C72.8373 172.011 73.6797 171.388 73.6797 170.392ZM70.0693 174.178C70.0693 173.664 70.496 173.499 70.9883 173.499H72.5309C73.0889 173.499 73.45 173.653 73.45 174.09C73.45 174.779 72.6622 175.042 71.5682 175.042C70.682 175.042 70.0693 174.779 70.0693 174.178ZM72.7607 170.403C72.7607 171.06 72.3449 171.432 71.6666 171.432C70.9992 171.432 70.5835 171.06 70.5835 170.403C70.5835 169.725 70.9992 169.353 71.6666 169.353C72.3449 169.353 72.7607 169.725 72.7607 170.403Z" fill="#001B40"></path><path d="M78.5659 171.979C78.369 172.712 77.8985 173.095 77.0999 173.095C76.2465 173.095 75.5791 172.438 75.5354 171.508H79.3427V171.147C79.3427 169.845 78.5659 168.762 77.0452 168.762C75.6666 168.762 74.6273 169.845 74.6273 171.355C74.6273 172.843 75.6666 173.806 77.0889 173.806C78.2815 173.806 79.0801 173.149 79.3208 172.066L78.5659 171.979ZM75.5572 170.917C75.6666 170.13 76.1809 169.451 77.0452 169.451C77.9533 169.451 78.3799 170.152 78.4128 170.917H75.5572Z" fill="#001B40"></path><path d="M80.4506 172.558C80.4506 173.488 80.9319 173.806 81.6103 173.806C82.1354 173.806 82.4855 173.664 82.8356 173.401V172.788C82.5621 172.941 82.2448 173.073 81.9385 173.073C81.5227 173.073 81.3477 172.876 81.3477 172.449V169.55H82.6934V168.893H81.3477V167.57H80.8335L80.6912 168.237C80.5818 168.696 80.4834 168.915 80.0348 169.003L79.7285 169.057V169.55H80.4506V172.558Z" fill="#001B40"></path><path d="M88.5396 168.981C88.3755 168.839 88.1567 168.762 87.8613 168.762C87.172 168.762 86.6797 169.32 86.5046 169.867V168.893H85.5965V173.674H86.5046V171.147C86.5046 170.228 87.0188 169.605 87.7081 169.605C88.0035 169.605 88.1895 169.659 88.452 169.801L88.5396 168.981Z" fill="#001B40"></path><path d="M92.7119 171.979C92.515 172.712 92.0445 173.095 91.2459 173.095C90.3925 173.095 89.7251 172.438 89.6813 171.508H93.4887V171.147C93.4887 169.845 92.7119 168.762 91.1912 168.762C89.8126 168.762 88.7733 169.845 88.7733 171.355C88.7733 172.843 89.8126 173.806 91.2349 173.806C92.4275 173.806 93.2261 173.149 93.4668 172.066L92.7119 171.979ZM89.7032 170.917C89.8126 170.13 90.3268 169.451 91.1912 169.451C92.0992 169.451 92.5259 170.152 92.5587 170.917H89.7032Z" fill="#001B40"></path><path d="M97.4083 171.541C97.4083 172.504 96.7628 173.138 95.9204 173.138C95.3733 173.138 95.0998 172.832 95.0998 172.427C95.0998 171.847 95.5812 171.705 96.3361 171.541L97.4083 171.311V171.541ZM98.2836 170.589C98.2836 169.375 97.5724 168.762 96.3689 168.762C95.242 168.762 94.5309 169.419 94.3449 170.316L95.1545 170.425C95.2967 169.867 95.6687 169.462 96.358 169.462C97.0254 169.462 97.4083 169.867 97.4083 170.524V170.71L96.1173 170.972C94.9685 171.202 94.1917 171.574 94.1917 172.482C94.1917 173.302 94.7935 173.806 95.7234 173.806C96.5002 173.806 97.1785 173.39 97.4411 172.832C97.4958 173.401 97.8459 173.773 98.3383 173.773C98.7102 173.773 98.9072 173.653 99.0713 173.488V172.996C98.94 173.073 98.7649 173.106 98.6555 173.106C98.4258 173.106 98.2836 172.985 98.2836 172.734V170.589Z" fill="#001B40"></path><path d="M103.342 171.421C103.342 172.471 102.686 173.084 101.821 173.084C100.881 173.084 100.355 172.383 100.355 171.289C100.355 170.195 100.881 169.495 101.821 169.495C102.686 169.495 103.342 170.108 103.342 171.147V171.421ZM103.331 173.674H104.239V166.782H103.331V169.9C103.113 169.309 102.511 168.762 101.614 168.762C100.191 168.762 99.4255 169.878 99.4255 171.289C99.4255 172.701 100.191 173.806 101.614 173.806C102.511 173.806 103.113 173.27 103.331 172.679V173.674Z" fill="#001B40"></path><path d="M107.055 175.512L109.812 168.893H108.915L107.449 172.569H107.406L105.885 168.893H104.933L106.946 173.664L106.169 175.512H107.055Z" fill="#001B40"></path><path d="M112.664 169.55V173.674H113.561V169.55H114.907V168.893H113.561V168.237C113.561 167.668 113.791 167.307 114.294 167.307C114.732 167.307 115.005 167.591 115.126 167.963L115.749 167.745C115.531 167.022 115.071 166.651 114.251 166.651C113.244 166.651 112.664 167.318 112.664 168.335V168.893H111.931V169.55H112.664Z" fill="#001B40"></path><path d="M116.136 171.289C116.136 170.217 116.672 169.473 117.635 169.473C118.609 169.473 119.156 170.217 119.156 171.289C119.156 172.351 118.609 173.106 117.635 173.106C116.672 173.106 116.136 172.351 116.136 171.289ZM120.086 171.289C120.086 169.801 119.046 168.762 117.635 168.762C116.235 168.762 115.206 169.801 115.206 171.289C115.206 172.777 116.235 173.806 117.635 173.806C119.046 173.806 120.086 172.777 120.086 171.289Z" fill="#001B40"></path><path d="M123.969 168.981C123.805 168.839 123.586 168.762 123.29 168.762C122.601 168.762 122.109 169.32 121.934 169.867V168.893H121.026V173.674H121.934V171.147C121.934 170.228 122.448 169.605 123.137 169.605C123.433 169.605 123.619 169.659 123.881 169.801L123.969 168.981Z" fill="#001B40"></path><path d="M126.778 172.558C126.778 173.488 127.259 173.806 127.937 173.806C128.462 173.806 128.813 173.664 129.163 173.401V172.788C128.889 172.941 128.572 173.073 128.266 173.073C127.85 173.073 127.675 172.876 127.675 172.449V169.55H129.02V168.893H127.675V167.57H127.16L127.018 168.237C126.909 168.696 126.81 168.915 126.362 169.003L126.055 169.057V169.55H126.778V172.558Z" fill="#001B40"></path><path d="M132.934 171.541C132.934 172.504 132.288 173.138 131.446 173.138C130.899 173.138 130.625 172.832 130.625 172.427C130.625 171.847 131.106 171.705 131.861 171.541L132.934 171.311V171.541ZM133.809 170.589C133.809 169.375 133.098 168.762 131.894 168.762C130.767 168.762 130.056 169.419 129.87 170.316L130.68 170.425C130.822 169.867 131.194 169.462 131.883 169.462C132.551 169.462 132.934 169.867 132.934 170.524V170.71L131.643 170.972C130.494 171.202 129.717 171.574 129.717 172.482C129.717 173.302 130.319 173.806 131.249 173.806C132.025 173.806 132.704 173.39 132.966 172.832C133.021 173.401 133.371 173.773 133.863 173.773C134.235 173.773 134.432 173.653 134.596 173.488V172.996C134.465 173.073 134.29 173.106 134.181 173.106C133.951 173.106 133.809 172.985 133.809 172.734V170.589Z" fill="#001B40"></path><path d="M139.479 168.893H138.505L137.247 170.545L135.967 168.893H134.917L136.722 171.213L134.763 173.674H135.748L137.192 171.815L138.658 173.674H139.709L137.717 171.169L139.479 168.893Z" fill="#001B40"></path><path d="M142.548 172.558C142.548 173.488 143.029 173.806 143.707 173.806C144.232 173.806 144.583 173.664 144.933 173.401V172.788C144.659 172.941 144.342 173.073 144.035 173.073C143.62 173.073 143.445 172.876 143.445 172.449V169.55H144.79V168.893H143.445V167.57H142.93L142.788 168.237C142.679 168.696 142.58 168.915 142.132 169.003L141.825 169.057V169.55H142.548V172.558Z" fill="#001B40"></path><path d="M145.728 168.893V173.674H146.636V168.893H145.728ZM145.706 167.81H146.647V166.782H145.706V167.81Z" fill="#001B40"></path><path d="M151.869 169.801C151.661 169.178 151.157 168.762 150.304 168.762C149.571 168.762 149.013 169.167 148.783 169.747V168.893H147.875V173.674H148.783V170.928C148.783 170.053 149.319 169.484 149.998 169.484C150.731 169.484 151.059 169.987 151.059 170.786V173.674H151.967V170.928C151.967 170.053 152.514 169.484 153.192 169.484C153.925 169.484 154.254 169.987 154.254 170.786V173.674H155.162V170.71C155.162 169.626 154.724 168.762 153.477 168.762C152.711 168.762 152.12 169.211 151.869 169.801Z" fill="#001B40"></path><path d="M159.991 171.979C159.794 172.712 159.323 173.095 158.525 173.095C157.671 173.095 157.004 172.438 156.96 171.508H160.768V171.147C160.768 169.845 159.991 168.762 158.47 168.762C157.092 168.762 156.052 169.845 156.052 171.355C156.052 172.843 157.092 173.806 158.514 173.806C159.706 173.806 160.505 173.149 160.746 172.066L159.991 171.979ZM156.982 170.917C157.092 170.13 157.606 169.451 158.47 169.451C159.378 169.451 159.805 170.152 159.838 170.917H156.982Z" fill="#001B40"></path><path d="M161.591 173.674H162.685V172.58H161.591V173.674ZM161.646 166.782V168.707L161.919 171.869H162.357L162.619 168.707V166.782H161.646Z" fill="#001B40"></path><path d="M28.4844 180.566C34.4736 180.566 39.3288 175.685 39.3288 169.663C39.3288 163.642 34.4736 158.76 28.4844 158.76C22.4952 158.76 17.64 163.642 17.64 169.663C17.64 175.685 22.4952 180.566 28.4844 180.566Z" fill="#CCE6F8"></path></svg> 