<?xml version="1.0" encoding="UTF-8"?> <svg xmlns="http://www.w3.org/2000/svg" width="48" height="48" viewBox="0 0 48 48" fill="none"><path fill-rule="evenodd" clip-rule="evenodd" d="M38 15H10C8.34315 15 7 16.3431 7 18V38C7 39.6569 8.34315 41 10 41H38C39.6569 41 41 39.6569 41 38V18C41 16.3431 39.6569 15 38 15ZM10 12C6.68629 12 4 14.6863 4 18V38C4 41.3137 6.6863 44 10 44H38C41.3137 44 44 41.3137 44 38V18C44 14.6863 41.3137 12 38 12H10Z" fill="#0075DD"></path><path fill-rule="evenodd" clip-rule="evenodd" d="M20 7.5C18.6193 7.5 17.5 8.61929 17.5 10V12C17.5 12.8284 16.8284 13.5 16 13.5C15.1716 13.5 14.5 12.8284 14.5 12V10C14.5 6.96243 16.9624 4.5 20 4.5H28C31.0376 4.5 33.5 6.96243 33.5 10V12C33.5 12.8284 32.8284 13.5 32 13.5C31.1716 13.5 30.5 12.8284 30.5 12V10C30.5 8.61929 29.3807 7.5 28 7.5H20Z" fill="#0075DD"></path><path fill-rule="evenodd" clip-rule="evenodd" d="M26 34.5C26.2761 34.5 26.5 34.2761 26.5 34L26.5 30C26.5 29.1716 27.1716 28.5 28 28.5C28.8284 28.5 29.5 29.1716 29.5 30L29.5 34C29.5 35.933 27.933 37.5 26 37.5L22 37.5C20.067 37.5 18.5 35.933 18.5 34L18.5 30C18.5 29.1716 19.1716 28.5 20 28.5C20.8284 28.5 21.5 29.1716 21.5 30L21.5 34C21.5 34.2761 21.7239 34.5 22 34.5L26 34.5Z" fill="#0075DD"></path><path fill-rule="evenodd" clip-rule="evenodd" d="M4.5 30C4.5 29.1716 5.17157 28.5 6 28.5H42C42.8284 28.5 43.5 29.1716 43.5 30C43.5 30.8284 42.8284 31.5 42 31.5H6C5.17157 31.5 4.5 30.8284 4.5 30Z" fill="#0075DD"></path></svg> 