<?xml version="1.0" encoding="UTF-8"?> <svg xmlns="http://www.w3.org/2000/svg" width="48" height="48" viewBox="0 0 48 48" fill="none"><path d="M38 13.5H10C7.51472 13.5 5.5 15.5147 5.5 18V38C5.5 40.4853 7.51472 42.5 10 42.5H38C40.4853 42.5 42.5 40.4853 42.5 38V18C42.5 15.5147 40.4853 13.5 38 13.5Z" stroke="#0075DD" stroke-width="3"></path><path d="M16 12V10C16 7.79086 17.7909 6 20 6H28C30.2092 6 32 7.79086 32 10V12" stroke="#0075DD" stroke-width="3" stroke-linecap="round"></path><path d="M6 22C11.6667 25.6666 26.8 30.8 42 22" stroke="#0075DD" stroke-width="3" stroke-linecap="round" stroke-linejoin="round"></path><path d="M14 30V26" stroke="#0075DD" stroke-width="3" stroke-linecap="round" stroke-linejoin="round"></path><path d="M34 30V26" stroke="#0075DD" stroke-width="3" stroke-linecap="round" stroke-linejoin="round"></path></svg> 